<svg id="Layer_1" data-name="Layer 1" xmlns="http://www.w3.org/2000/svg" viewBox="0 0 2091.16 607.65"><defs><style>.cls-1{fill:#2250fc;}</style></defs><path class="cls-1" d="M443,312.32a8.49,8.49,0,0,1-6-2.49l-87.92-87.92a8.5,8.5,0,0,1,6-14.51H443a8.5,8.5,0,0,1,8.5,8.5v87.92a8.47,8.47,0,0,1-8.49,8.5M375.62,224.4l58.9,58.9V224.4Z"/><path class="cls-1" d="M179.26,224.4H91.34a8.49,8.49,0,0,1-6-14.51L173.25,122a8.5,8.5,0,0,1,14.51,6V215.9a8.5,8.5,0,0,1-8.5,8.5m-67.4-17h58.9V148.5Z"/><path class="cls-1" d="M179.26,224.4a8.38,8.38,0,0,1-3.25-.65,8.48,8.48,0,0,1-5.25-7.85V128a8.5,8.5,0,0,1,8.5-8.5h87.92a8.5,8.5,0,0,1,6,14.51l-87.92,87.92a8.49,8.49,0,0,1-6,2.49m8.5-87.92v58.9l58.9-58.9Z"/><path class="cls-1" d="M267.18,224.4H179.26a8.5,8.5,0,0,1-6-14.51L261.17,122a8.5,8.5,0,0,1,14.51,6V215.9a8.5,8.5,0,0,1-8.5,8.5m-67.4-17h58.9V148.5Z"/><path class="cls-1" d="M267.18,312.32a8.49,8.49,0,0,1-6-2.49l-87.92-87.92a8.5,8.5,0,0,1,6-14.51h87.92a8.51,8.51,0,0,1,8.5,8.5v87.92a8.48,8.48,0,0,1-8.5,8.5m-67.4-87.92,58.9,58.9V224.4Z"/><path class="cls-1" d="M355.1,224.4H267.18a8.5,8.5,0,0,1-8.5-8.5V128a8.5,8.5,0,0,1,14.51-6l87.92,87.92a8.5,8.5,0,0,1-6,14.51m-79.42-17h58.9l-58.9-58.9Z"/><path class="cls-1" d="M267.18,312.32a8.48,8.48,0,0,1-8.5-8.5V215.9a8.51,8.51,0,0,1,8.5-8.5H355.1a8.5,8.5,0,0,1,6,14.51l-87.92,87.92a8.49,8.49,0,0,1-6,2.49m8.5-87.92v58.9l58.9-58.9Z"/><path class="cls-1" d="M355.1,312.32H267.18a8.5,8.5,0,0,1-6-14.51l87.92-87.92a8.5,8.5,0,0,1,14.51,6v87.92a8.49,8.49,0,0,1-8.5,8.5m-67.4-17h58.9v-58.9Z"/><path class="cls-1" d="M355.1,400.25a8.53,8.53,0,0,1-6-2.49l-87.92-87.93a8.5,8.5,0,0,1,6-14.51H355.1a8.5,8.5,0,0,1,8.5,8.5v87.93a8.51,8.51,0,0,1-8.5,8.5m-67.4-87.93,58.9,58.9v-58.9Z"/><path class="cls-1" d="M443,312.32H355.1a8.5,8.5,0,0,1-8.5-8.5V215.9a8.5,8.5,0,0,1,14.51-6L449,297.81a8.49,8.49,0,0,1-6,14.51m-79.42-17h58.9l-58.9-58.9Z"/><path class="cls-1" d="M355.1,400.25a8.51,8.51,0,0,1-8.5-8.5V303.82a8.51,8.51,0,0,1,8.5-8.5H443a8.5,8.5,0,0,1,6,14.51l-87.92,87.93a8.51,8.51,0,0,1-6,2.49m8.5-87.93v58.9l58.9-58.9Z"/><path class="cls-1" d="M267.18,400.25H179.26a8.5,8.5,0,0,1-6-14.51l87.92-87.93a8.5,8.5,0,0,1,14.51,6v87.93a8.51,8.51,0,0,1-8.5,8.5m-67.4-17h58.9V324.34Z"/><path class="cls-1" d="M267.18,488.17a8.53,8.53,0,0,1-6-2.49l-87.92-87.92a8.5,8.5,0,0,1,6-14.51h87.92a8.5,8.5,0,0,1,8.5,8.5v87.92a8.5,8.5,0,0,1-5.25,7.85,8.38,8.38,0,0,1-3.25.65m-67.4-87.92,58.9,58.9v-58.9Z"/><path class="cls-1" d="M443,488.17H355.1a8.51,8.51,0,0,1-8.5-8.5V391.75a8.5,8.5,0,0,1,14.51-6L449,473.66a8.5,8.5,0,0,1-6,14.51m-79.42-17h58.9l-58.9-58.9Z"/><path class="cls-1" d="M355.1,488.17H267.18a8.5,8.5,0,0,1-6-14.51l87.92-87.92a8.5,8.5,0,0,1,14.51,6v87.92a8.5,8.5,0,0,1-8.5,8.5m-67.4-17h58.9v-58.9Z"/><path class="cls-1" d="M355.1,400.25H267.18a8.51,8.51,0,0,1-8.5-8.5V303.82a8.5,8.5,0,0,1,14.51-6l87.92,87.93a8.5,8.5,0,0,1-6,14.51m-79.42-17h58.9l-58.9-58.91Z"/><path class="cls-1" d="M267.18,488.17a8.38,8.38,0,0,1-3.25-.65,8.5,8.5,0,0,1-5.25-7.85V391.75a8.5,8.5,0,0,1,8.5-8.5H355.1a8.5,8.5,0,0,1,6,14.51l-87.92,87.92a8.53,8.53,0,0,1-6,2.49m8.5-87.92v58.9l58.9-58.9Z"/><path class="cls-1" d="M531,224.4H443a8.5,8.5,0,0,1-8.5-8.5V128A8.5,8.5,0,0,1,449,122L537,209.89a8.5,8.5,0,0,1-6,14.51m-79.43-17h58.9l-58.9-58.9Z"/><path class="cls-1" d="M443,312.32a8.48,8.48,0,0,1-8.5-8.5V215.9a8.51,8.51,0,0,1,8.5-8.5H531a8.5,8.5,0,0,1,6,14.51L449,309.83a8.47,8.47,0,0,1-6,2.49m8.5-87.92v58.9l58.9-58.9Z"/><path class="cls-1" d="M443,224.4H355.1a8.5,8.5,0,0,1-6-14.51L437,122a8.5,8.5,0,0,1,14.51,6V215.9a8.49,8.49,0,0,1-8.5,8.5m-67.4-17h58.9V148.5Z"/><path d="M727.44,419.23V356.57l-48.36-90.35h39.5L734.25,303c4.76,11.12,7.94,19.29,11.8,29.28h.45c3.41-9.53,7-18.39,11.58-29.28l15.44-36.78h38.82l-50.4,89.21v63.8Z"/><path d="M869.77,419.23l-2-11.13h-.68c-7.26,8.86-18.62,13.62-31.78,13.62-22.48,0-35.87-16.34-35.87-34.05,0-28.83,25.88-42.68,65.15-42.45v-1.59c0-5.9-3.18-14.3-20.2-14.3-11.35,0-23.38,3.86-30.65,8.4l-6.35-22.25c7.71-4.31,22.92-9.76,43.13-9.76,37,0,48.8,21.79,48.8,47.9v38.59c0,10.67.46,20.89,1.59,27Zm-4.08-52.44c-18.16-.23-32.24,4.08-32.24,17.48,0,8.85,5.9,13.16,13.62,13.16A18.85,18.85,0,0,0,865,384.72a25,25,0,0,0,.68-5.9Z"/><path d="M926.53,343.63c0-13.85-.46-25.65-.91-35.41h30l1.59,15.21h.68c4.54-7,15.89-17.71,34.28-17.71,22.7,0,39.73,15,39.73,47.67v65.84H997.35V357.71c0-14.31-5-24.07-17.48-24.07-9.53,0-15.21,6.59-17.48,12.94a23.89,23.89,0,0,0-1.36,8.63v64h-34.5Z"/><path d="M1165.57,308.22c-.46,7-.91,16.34-.91,32.91v62c0,21.34-4.31,38.82-16.8,49.94-12.26,10.44-28.83,13.62-45.17,13.62-14.53,0-30-2.95-40-8.63l6.81-26.1a68.35,68.35,0,0,0,32.24,8.4c16.34,0,28.83-8.86,28.83-29.29v-7.26h-.46c-6.58,9.31-17.25,14.53-30,14.53-27.47,0-47-22.25-47-54.26,0-35.64,23.15-58.34,50.39-58.34,15.21,0,24.75,6.58,30.42,15.66h.46l1.13-13.16Zm-35.42,45.17a26.88,26.88,0,0,0-.68-6.35c-2.49-9.08-9.08-15.21-18.61-15.21-12.49,0-22.7,11.35-22.7,31.55,0,16.57,8.17,29.51,22.7,29.51A18.74,18.74,0,0,0,1129,378.82a29.27,29.27,0,0,0,1.13-9.08Z"/><path d="M1239.34,268.26c10.67-1.81,25.65-3.18,46.77-3.18,21.34,0,36.54,4.09,46.76,12.26,9.76,7.72,16.34,20.43,16.34,35.42s-5,27.69-14.07,36.32c-11.8,11.12-29.28,16.12-49.71,16.12a87.8,87.8,0,0,1-11.81-.68v54.71h-34.28Zm34.28,69.47a52.91,52.91,0,0,0,11.58.91c18.39,0,29.74-9.31,29.74-25,0-14.07-9.76-22.47-27-22.47-7,0-11.8.68-14.3,1.36Z"/><path d="M1368.06,344.77c0-16.35-.46-27-.91-36.55h29.74l1.13,20.43h.91c5.68-16.12,19.3-22.93,30-22.93a35.84,35.84,0,0,1,7.26.45v32.47a49,49,0,0,0-9.31-.91c-12.71,0-21.34,6.81-23.61,17.48a41,41,0,0,0-.68,7.72v56.29h-34.5Z"/><path d="M1562.15,362.47c0,40.64-28.83,59.25-58.57,59.25-32.46,0-57.43-21.34-57.43-57.2s23.61-58.8,59.25-58.8c34,0,56.75,23.38,56.75,56.75m-80.36,1.14c0,19.07,7.94,33.37,22.7,33.37,13.39,0,22-13.4,22-33.37,0-16.57-6.36-33.37-22-33.37-16.57,0-22.7,17-22.7,33.37"/><path d="M1560.56,439.66c9.08-.68,16.12-2.73,20.43-7.27,5-5.22,6.81-14.07,6.81-36.09V308.22h34.73v96.25c0,24.29-5.44,39-15.66,48.58s-26.33,13.62-42.91,13.62Zm62.88-162.32c0,9.54-7,17.26-18.61,17.26-10.9,0-17.94-7.72-17.94-17.26,0-10,7-17.48,18.39-17.48,11.12,0,17.93,7.49,18.16,17.48"/><path d="M1676.1,374.73c1.14,14.3,15.21,21.11,31.33,21.11a97.81,97.81,0,0,0,30.65-4.54l4.54,23.39c-11.35,4.54-25.2,6.81-40.18,6.81-37.69,0-59.25-21.8-59.25-56.53,0-28.15,17.48-59.25,56.07-59.25,35.87,0,49.49,27.92,49.49,55.39a81.23,81.23,0,0,1-1.14,13.62Zm40.64-23.61c0-8.4-3.63-22.47-19.52-22.47-14.53,0-20.44,13.16-21.34,22.47Z"/><path d="M1852.72,416.5c-6.13,2.73-17.71,5-30.88,5-35.86,0-58.79-21.8-58.79-56.76,0-32.46,22.25-59,63.56-59,9.08,0,19.07,1.59,26.34,4.31l-5.45,25.65c-4.09-1.81-10.22-3.4-19.3-3.4-18.16,0-30,12.94-29.74,31.1,0,20.43,13.62,31.1,30.42,31.1a53.31,53.31,0,0,0,19.75-3.4Z"/><path d="M1914,276.44v31.78h24.74v25.42H1914v40.18c0,13.4,3.17,19.53,13.62,19.53a56.68,56.68,0,0,0,10.21-.91l.23,26.1c-4.54,1.82-12.71,3-22.48,3-11.12,0-20.43-3.86-25.87-9.54-6.36-6.58-9.54-17.25-9.54-32.92v-45.4h-14.75V308.22h14.75V284.15Z"/></svg>